<svg width="22" height="16" viewBox="0 0 22 16" fill="none" xmlns="http://www.w3.org/2000/svg">
<path d="M10.5827 16.0001C10.0504 15.9974 9.54098 15.8364 9.16495 15.5521L0.596013 9.08206C0.21564 8.79495 0.00195312 8.40557 0.00195312 7.99956C0.00195313 7.59355 0.21564 7.20417 0.596013 6.91706L9.16495 0.45006C9.35334 0.307768 9.57705 0.194889 9.82327 0.117875C10.0695 0.0408605 10.3334 0.0012207 10.6 0.0012207C10.8665 0.0012207 11.1304 0.0408605 11.3766 0.117875C11.6229 0.194889 11.8466 0.307768 12.035 0.45006L20.6065 6.91806C20.7971 7.06157 20.9477 7.23235 21.0497 7.42038C21.1516 7.60841 21.2028 7.80991 21.2002 8.01306C21.1966 8.41479 20.9833 8.79927 20.6065 9.08306L12.0336 15.5521C11.8436 15.6957 11.6176 15.8094 11.3687 15.8863C11.1198 15.9632 10.853 16.0019 10.5841 16.0001H10.5827ZM10.1216 1.17006L6.31482 4.04406L10.6 7.27806L14.8851 4.04406L11.0783 1.17006C11.0155 1.12259 10.941 1.08493 10.8589 1.05923C10.7768 1.03354 10.6888 1.02031 10.6 1.02031C10.5111 1.02031 10.4231 1.03354 10.341 1.05923C10.2589 1.08493 10.1844 1.12259 10.1216 1.17006ZM11.5566 8.00006L15.8418 11.2341L19.6485 8.36106C19.9136 8.16106 19.9136 7.83806 19.6485 7.63906L15.8418 4.76606L11.5566 8.00006ZM10.6 8.72206L6.31482 11.9561L10.1216 14.8291C10.3866 15.0291 10.8146 15.0291 11.0783 14.8291L14.8851 11.9561L10.6 8.72206ZM9.64328 8.00006L5.35815 4.76606L1.55003 7.63906C1.42332 7.73486 1.35216 7.8647 1.35216 8.00006C1.35216 8.13542 1.42332 8.26526 1.55003 8.36106L5.35815 11.2341L9.64328 8.00006Z" fill="#FFB800"/>
</svg>
